# Blender v2.78 (sub 0) OBJ File: 'key.blend'
# www.blender.org
mtllib key.mtl
o Cube.003_Cube.006
v -0.854889 -3.747417 -0.353120
v -0.854889 -3.387417 -0.353120
v -0.854889 -3.747417 -0.793120
v -0.854889 -3.387417 -0.793120
v -0.374889 -3.747417 -0.353120
v -0.374889 -3.387417 -0.353120
v -0.374889 -3.747417 -0.793120
v -0.374889 -3.387417 -0.793120
vn -1.0000 0.0000 0.0000
vn 0.0000 0.0000 -1.0000
vn 1.0000 0.0000 0.0000
vn 0.0000 0.0000 1.0000
vn 0.0000 -1.0000 0.0000
vn 0.0000 1.0000 0.0000
usemtl None
s off
f 1//1 2//1 4//1 3//1
f 3//2 4//2 8//2 7//2
f 7//3 8//3 6//3 5//3
f 5//4 6//4 2//4 1//4
f 3//5 7//5 5//5 1//5
f 8//6 4//6 2//6 6//6
o Cube.002_Cube.005
v -0.858326 -4.386372 -0.275454
v -0.858326 -3.986371 -0.275454
v -0.858326 -4.386372 -1.035454
v -0.858326 -3.986371 -1.035454
v -0.378326 -4.386372 -0.275454
v -0.378326 -3.986371 -0.275454
v -0.378326 -4.386372 -1.035454
v -0.378326 -3.986371 -1.035454
vn -1.0000 0.0000 0.0000
vn 0.0000 0.0000 -1.0000
vn 1.0000 0.0000 0.0000
vn 0.0000 0.0000 1.0000
vn 0.0000 -1.0000 0.0000
vn 0.0000 1.0000 0.0000
usemtl None
s off
f 9//7 10//7 12//7 11//7
f 11//8 12//8 16//8 15//8
f 15//9 16//9 14//9 13//9
f 13//10 14//10 10//10 9//10
f 11//11 15//11 13//11 9//11
f 16//12 12//12 10//12 14//12
o Cube.001_Cube.004
v -0.858566 -4.391319 -0.039398
v -0.858566 0.208681 -0.039398
v -0.858566 -4.391319 -0.459398
v -0.858566 0.208681 -0.459398
v -0.378566 -4.391319 -0.039398
v -0.378566 0.208681 -0.039398
v -0.378566 -4.391319 -0.459398
v -0.378566 0.208681 -0.459398
vn -1.0000 0.0000 0.0000
vn 0.0000 0.0000 -1.0000
vn 1.0000 0.0000 0.0000
vn 0.0000 0.0000 1.0000
vn 0.0000 -1.0000 0.0000
vn 0.0000 1.0000 0.0000
usemtl None
s off
f 17//13 18//13 20//13 19//13
f 19//14 20//14 24//14 23//14
f 23//15 24//15 22//15 21//15
f 21//16 22//16 18//16 17//16
f 19//17 23//17 21//17 17//17
f 24//18 20//18 18//18 22//18
o Cube_Cube.002
v -0.844802 0.219854 -0.278184
v -0.831800 1.280434 0.782476
v -0.831800 1.280434 -1.338844
v -0.818798 2.341014 -0.278184
v -0.861599 -0.139599 -0.276555
v -0.844263 1.274508 1.137658
v -0.844263 1.274508 -1.690769
v -0.826927 2.688616 -0.276555
v -0.381635 -0.145483 -0.276555
v -0.364299 1.268624 1.137658
v -0.364299 1.268624 -1.690769
v -0.346963 2.682732 -0.276555
v -0.377227 0.214121 -0.278184
v -0.364225 1.274702 -1.338844
v -0.376891 0.241496 -0.250807
v -0.351222 2.335282 -0.278184
v -0.364225 1.274702 0.782476
vn -0.0087 -0.7071 0.7071
vn 0.0087 0.7071 0.7071
vn 0.0087 0.7071 -0.7071
vn 0.9999 -0.0123 -0.0000
vn -0.0087 -0.7071 -0.7071
vn -0.9999 0.0123 0.0000
usemtl None
s off
f 27//19 38//19 40//19 28//19
f 27//20 25//20 37//20 38//20
f 31//21 32//21 36//21 35//21
f 35//22 36//22 40//22 38//22 37//22 39//22 33//22
f 33//19 34//19 30//19 29//19
f 31//23 35//23 33//23 29//23
f 36//20 32//20 30//20 34//20
f 33//22 39//22 41//22 40//22 36//22 34//22
f 41//23 26//23 28//23 40//23
f 37//21 25//21 26//21 41//21 39//21
f 27//22 28//22 26//22 25//22
f 31//24 29//24 30//24 32//24
o Cube.004_Cube.007
v -0.857468 -3.132179 -0.275454
v -0.857468 -2.732179 -0.275454
v -0.857468 -3.132179 -1.035454
v -0.857468 -2.732179 -1.035454
v -0.377468 -3.132179 -0.275454
v -0.377468 -2.732179 -0.275454
v -0.377468 -3.132179 -1.035454
v -0.377468 -2.732179 -1.035454
vn -1.0000 0.0000 0.0000
vn 0.0000 0.0000 -1.0000
vn 1.0000 0.0000 0.0000
vn 0.0000 0.0000 1.0000
vn 0.0000 -1.0000 0.0000
vn 0.0000 1.0000 0.0000
usemtl None
s off
f 42//25 43//25 45//25 44//25
f 44//26 45//26 49//26 48//26
f 48//27 49//27 47//27 46//27
f 46//28 47//28 43//28 42//28
f 44//29 48//29 46//29 42//29
f 49//30 45//30 43//30 47//30
